{
   "accessors" : 
   [
      {
         "bufferView" : 0,
         "byteOffset" : 0,
         "componentType" : 5126,
         "count" : 31401,
         "max" : [ 163.35888671875, 216.69322204589844, 220.54032897949219 ],
         "min" : [ 8.7200241088867188, 64.003509521484375, 29.411603927612305 ],
         "type" : "VEC3"
      },
      {
         "bufferView" : 1,
         "byteOffset" : 0,
         "componentType" : 5125,
         "count" : 188412,
         "type" : "SCALAR"
      },
      {
         "bufferView" : 2,
         "byteOffset" : 0,
         "componentType" : 5126,
         "count" : 2,
         "max" : [ 0.0, 1.0, 0.0 ],
         "min" : [ 0.0, 0.0, 0.0 ],
         "type" : "VEC3"
      },
      {
         "bufferView" : 3,
         "byteOffset" : 0,
         "componentType" : 5126,
         "count" : 2,
         "normalized" : false,
         "type" : "VEC2"
      },
      {
         "bufferView" : 4,
         "byteOffset" : 0,
         "componentType" : 5125,
         "count" : 2,
         "type" : "SCALAR"
      },
      {
         "bufferView" : 5,
         "byteOffset" : 0,
         "componentType" : 5126,
         "count" : 2,
         "max" : [ 0.0, 1.0, 0.0 ],
         "min" : [ 0.0, 0.0, 0.0 ],
         "type" : "VEC3"
      },
      {
         "bufferView" : 6,
         "byteOffset" : 0,
         "componentType" : 5126,
         "count" : 2,
         "normalized" : false,
         "type" : "VEC2"
      },
      {
         "bufferView" : 7,
         "byteOffset" : 0,
         "componentType" : 5125,
         "count" : 2,
         "type" : "SCALAR"
      },
      {
         "bufferView" : 8,
         "byteOffset" : 0,
         "componentType" : 5126,
         "count" : 2,
         "max" : [ 0.0, 1.0, 0.0 ],
         "min" : [ 0.0, 0.0, 0.0 ],
         "type" : "VEC3"
      },
      {
         "bufferView" : 9,
         "byteOffset" : 0,
         "componentType" : 5126,
         "count" : 2,
         "normalized" : false,
         "type" : "VEC2"
      },
      {
         "bufferView" : 10,
         "byteOffset" : 0,
         "componentType" : 5125,
         "count" : 2,
         "type" : "SCALAR"
      },
      {
         "bufferView" : 11,
         "byteOffset" : 0,
         "componentType" : 5126,
         "count" : 17,
         "max" : [ 0.40000000596046448, 0.5, 0.40000000596046448 ],
         "min" : [ -0.40000000596046448, -0.5, -0.40000000596046448 ],
         "type" : "VEC3"
      },
      {
         "bufferView" : 12,
         "byteOffset" : 0,
         "componentType" : 5125,
         "count" : 90,
         "type" : "SCALAR"
      },
      {
         "bufferView" : 13,
         "byteOffset" : 0,
         "componentType" : 5126,
         "count" : 17,
         "max" : [ 0.40000000596046448, 0.5, 0.40000000596046448 ],
         "min" : [ -0.40000000596046448, -0.5, -0.40000000596046448 ],
         "type" : "VEC3"
      },
      {
         "bufferView" : 14,
         "byteOffset" : 0,
         "componentType" : 5125,
         "count" : 90,
         "type" : "SCALAR"
      },
      {
         "bufferView" : 15,
         "byteOffset" : 0,
         "componentType" : 5126,
         "count" : 17,
         "max" : [ 0.40000000596046448, 0.5, 0.40000000596046448 ],
         "min" : [ -0.40000000596046448, -0.5, -0.40000000596046448 ],
         "type" : "VEC3"
      },
      {
         "bufferView" : 16,
         "byteOffset" : 0,
         "componentType" : 5125,
         "count" : 90,
         "type" : "SCALAR"
      },
      {
         "bufferView" : 17,
         "byteOffset" : 0,
         "componentType" : 5126,
         "count" : 14,
         "max" : [ 1.1411700248718262, 1.0264400243759155, 0.0 ],
         "min" : [ 0.1519400030374527, -0.071429997682571411, 0.0 ],
         "type" : "VEC3"
      },
      {
         "bufferView" : 18,
         "byteOffset" : 0,
         "componentType" : 5125,
         "count" : 36,
         "type" : "SCALAR"
      },
      {
         "bufferView" : 19,
         "byteOffset" : 0,
         "componentType" : 5126,
         "count" : 12,
         "max" : [ 1.1452100276947021, 1.0257099866867065, 0.0 ],
         "min" : [ 0.15284000337123871, -0.071429997682571411, 0.0 ],
         "type" : "VEC3"
      },
      {
         "bufferView" : 20,
         "byteOffset" : 0,
         "componentType" : 5125,
         "count" : 30,
         "type" : "SCALAR"
      },
      {
         "bufferView" : 21,
         "byteOffset" : 0,
         "componentType" : 5126,
         "count" : 11,
         "max" : [ 1.0399999618530273, 1.0261499881744385, 0.0 ],
         "min" : [ 0.17395000159740448, -0.071860000491142273, 0.0 ],
         "type" : "VEC3"
      },
      {
         "bufferView" : 22,
         "byteOffset" : 0,
         "componentType" : 5125,
         "count" : 27,
         "type" : "SCALAR"
      }
   ],
   "asset" : 
   {
      "generator" : "VTK",
      "version" : "2.0"
   },
   "bufferViews" : 
   [
      {
         "buffer" : 0,
         "byteLength" : 376812,
         "byteOffset" : 0
      },
      {
         "buffer" : 1,
         "byteLength" : 753648,
         "byteOffset" : 0
      },
      {
         "buffer" : 2,
         "byteLength" : 24,
         "byteOffset" : 0
      },
      {
         "buffer" : 3,
         "byteLength" : 16,
         "byteOffset" : 0
      },
      {
         "buffer" : 4,
         "byteLength" : 8,
         "byteOffset" : 0
      },
      {
         "buffer" : 5,
         "byteLength" : 24,
         "byteOffset" : 0
      },
      {
         "buffer" : 6,
         "byteLength" : 16,
         "byteOffset" : 0
      },
      {
         "buffer" : 7,
         "byteLength" : 8,
         "byteOffset" : 0
      },
      {
         "buffer" : 8,
         "byteLength" : 24,
         "byteOffset" : 0
      },
      {
         "buffer" : 9,
         "byteLength" : 16,
         "byteOffset" : 0
      },
      {
         "buffer" : 10,
         "byteLength" : 8,
         "byteOffset" : 0
      },
      {
         "buffer" : 11,
         "byteLength" : 204,
         "byteOffset" : 0
      },
      {
         "buffer" : 12,
         "byteLength" : 360,
         "byteOffset" : 0
      },
      {
         "buffer" : 13,
         "byteLength" : 204,
         "byteOffset" : 0
      },
      {
         "buffer" : 14,
         "byteLength" : 360,
         "byteOffset" : 0
      },
      {
         "buffer" : 15,
         "byteLength" : 204,
         "byteOffset" : 0
      },
      {
         "buffer" : 16,
         "byteLength" : 360,
         "byteOffset" : 0
      },
      {
         "buffer" : 17,
         "byteLength" : 168,
         "byteOffset" : 0
      },
      {
         "buffer" : 18,
         "byteLength" : 144,
         "byteOffset" : 0
      },
      {
         "buffer" : 19,
         "byteLength" : 144,
         "byteOffset" : 0
      },
      {
         "buffer" : 20,
         "byteLength" : 120,
         "byteOffset" : 0
      },
      {
         "buffer" : 21,
         "byteLength" : 132,
         "byteOffset" : 0
      },
      {
         "buffer" : 22,
         "byteLength" : 108,
         "byteOffset" : 0
      }
   ],
   "buffers" : 
   [
      {
         "byteLength" : 376812,
         "uri" : "data:application/octet-stream;base64,"
      },
      {
         "byteLength" : 753648,
         "uri" : "data:application/octet-stream;base64,"
      },
      {
         "byteLength" : 24,
         "uri" : "data:application/octet-stream;base64,"
      },
      {
         "byteLength" : 16,
         "uri" : "data:application/octet-stream;base64,"
      },
      {
         "byteLength" : 8,
         "uri" : "data:application/octet-stream;base64,"
      },
      {
         "byteLength" : 24,
         "uri" : "data:application/octet-stream;base64,"
      },
      {
         "byteLength" : 16,
         "uri" : "data:application/octet-stream;base64,"
      },
      {
         "byteLength" : 8,
         "uri" : "data:application/octet-stream;base64,"
      },
      {
         "byteLength" : 24,
         "uri" : "data:application/octet-stream;base64,"
      },
      {
         "byteLength" : 16,
         "uri" : "data:application/octet-stream;base64,"
      },
      {
         "byteLength" : 8,
         "uri" : "data:application/octet-stream;base64,"
      },
      {
         "byteLength" : 204,
         "uri" : "data:application/octet-stream;base64,"
      },
      {
         "byteLength" : 360,
         "uri" : "data:application/octet-stream;base64,"
      },
      {
         "byteLength" : 204,
         "uri" : "data:application/octet-stream;base64,"
      },
      {
         "byteLength" : 360,
         "uri" : "data:application/octet-stream;base64,"
      },
      {
         "byteLength" : 204,
         "uri" : "data:application/octet-stream;base64,"
      },
      {
         "byteLength" : 360,
         "uri" : "data:application/octet-stream;base64,"
      },
      {
         "byteLength" : 168,
         "uri" : "data:application/octet-stream;base64,"
      },
      {
         "byteLength" : 144,
         "uri" : "data:application/octet-stream;base64,"
      },
      {
         "byteLength" : 144,
         "uri" : "data:application/octet-stream;base64,"
      },
      {
         "byteLength" : 120,
         "uri" : "data:application/octet-stream;base64,"
      },
      {
         "byteLength" : 132,
         "uri" : "data:application/octet-stream;base64,"
      },
      {
         "byteLength" : 108,
         "uri" : "data:application/octet-stream;base64,"
      }
   ],
   "cameras" : 
   [
      {
         "perspective" : 
         {
            "aspectRatio" : 1.5176678445229681,
            "yfov" : 30.0,
            "zfar" : 601.58936698548939,
            "znear" : 89.001883251311341
         },
         "type" : "perspective"
      },
      {
         "perspective" : 
         {
            "aspectRatio" : 1.0,
            "yfov" : 30.0,
            "zfar" : 10.429704133120154,
            "znear" : 3.7357833467329349
         },
         "type" : "perspective"
      }
   ],
   "materials" : 
   [
      {
         "pbrMetallicRoughness" : 
         {
            "baseColorFactor" : [ 1.0, 1.0, 1.0, 1.0 ],
            "metallicFactor" : 0.0,
            "roughnessFactor" : 1.0
         }
      },
      {
         "pbrMetallicRoughness" : 
         {
            "baseColorFactor" : [ 1.0, 0.0, 0.0, 1.0 ],
            "metallicFactor" : 0.0,
            "roughnessFactor" : 1.0
         }
      },
      {
         "pbrMetallicRoughness" : 
         {
            "baseColorFactor" : [ 1.0, 1.0, 0.0, 1.0 ],
            "metallicFactor" : 0.0,
            "roughnessFactor" : 1.0
         }
      },
      {
         "pbrMetallicRoughness" : 
         {
            "baseColorFactor" : [ 0.0, 1.0, 0.0, 1.0 ],
            "metallicFactor" : 0.0,
            "roughnessFactor" : 1.0
         }
      },
      {
         "pbrMetallicRoughness" : 
         {
            "baseColorFactor" : [ 1.0, 0.0, 0.0, 1.0 ],
            "metallicFactor" : 0.0,
            "roughnessFactor" : 1.0
         }
      },
      {
         "pbrMetallicRoughness" : 
         {
            "baseColorFactor" : [ 1.0, 1.0, 0.0, 1.0 ],
            "metallicFactor" : 0.0,
            "roughnessFactor" : 1.0
         }
      },
      {
         "pbrMetallicRoughness" : 
         {
            "baseColorFactor" : [ 0.0, 1.0, 0.0, 1.0 ],
            "metallicFactor" : 0.0,
            "roughnessFactor" : 1.0
         }
      },
      {
         "pbrMetallicRoughness" : 
         {
            "baseColorFactor" : [ 1.0, 1.0, 1.0, 1.0 ],
            "metallicFactor" : 0.0,
            "roughnessFactor" : 1.0
         }
      },
      {
         "pbrMetallicRoughness" : 
         {
            "baseColorFactor" : [ 1.0, 1.0, 1.0, 1.0 ],
            "metallicFactor" : 0.0,
            "roughnessFactor" : 1.0
         }
      },
      {
         "pbrMetallicRoughness" : 
         {
            "baseColorFactor" : [ 1.0, 1.0, 1.0, 1.0 ],
            "metallicFactor" : 0.0,
            "roughnessFactor" : 1.0
         }
      }
   ],
   "meshes" : 
   [
      {
         "name" : "mesh0",
         "primitives" : 
         [
            {
               "attributes" : 
               {
                  "POSITION" : 0
               },
               "indices" : 1,
               "material" : 0,
               "mode" : 4
            }
         ]
      },
      {
         "name" : "mesh1",
         "primitives" : 
         [
            {
               "attributes" : 
               {
                  "POSITION" : 2,
                  "TEXCOORD_0" : 3
               },
               "indices" : 4,
               "material" : 1,
               "mode" : 1
            }
         ]
      },
      {
         "name" : "mesh2",
         "primitives" : 
         [
            {
               "attributes" : 
               {
                  "POSITION" : 5,
                  "TEXCOORD_0" : 6
               },
               "indices" : 7,
               "material" : 2,
               "mode" : 1
            }
         ]
      },
      {
         "name" : "mesh3",
         "primitives" : 
         [
            {
               "attributes" : 
               {
                  "POSITION" : 8,
                  "TEXCOORD_0" : 9
               },
               "indices" : 10,
               "material" : 3,
               "mode" : 1
            }
         ]
      },
      {
         "name" : "mesh4",
         "primitives" : 
         [
            {
               "attributes" : 
               {
                  "POSITION" : 11
               },
               "indices" : 12,
               "material" : 4,
               "mode" : 4
            }
         ]
      },
      {
         "name" : "mesh5",
         "primitives" : 
         [
            {
               "attributes" : 
               {
                  "POSITION" : 13
               },
               "indices" : 14,
               "material" : 5,
               "mode" : 4
            }
         ]
      },
      {
         "name" : "mesh6",
         "primitives" : 
         [
            {
               "attributes" : 
               {
                  "POSITION" : 15
               },
               "indices" : 16,
               "material" : 6,
               "mode" : 4
            }
         ]
      },
      {
         "name" : "mesh7",
         "primitives" : 
         [
            {
               "attributes" : 
               {
                  "POSITION" : 17
               },
               "indices" : 18,
               "material" : 7,
               "mode" : 4
            }
         ]
      },
      {
         "name" : "mesh8",
         "primitives" : 
         [
            {
               "attributes" : 
               {
                  "POSITION" : 19
               },
               "indices" : 20,
               "material" : 8,
               "mode" : 4
            }
         ]
      },
      {
         "name" : "mesh9",
         "primitives" : 
         [
            {
               "attributes" : 
               {
                  "POSITION" : 21
               },
               "indices" : 22,
               "material" : 9,
               "mode" : 4
            }
         ]
      }
   ],
   "nodes" : 
   [
      {
         "matrix" : 
         [
            1.0,
            0.0,
            0.0,
            0.0,
            0.0,
            1.0,
            0.0,
            0.0,
            0.0,
            0.0,
            1.0,
            0.0,
            0.0,
            0.0,
            0.0,
            1.0
         ],
         "mesh" : 0,
         "name" : "mesh0"
      },
      {
         "camera" : 0,
         "matrix" : 
         [
            0.014752115955947602,
            -0.73423099385545687,
            0.67873943655636393,
            0.0,
            -0.067990837965736836,
            0.67650555026290893,
            0.73329222443456732,
            0.0,
            -0.99757687474577073,
            -0.056965674976312747,
            -0.039941092210327725,
            0.0,
            132.94627300677189,
            -24.654273278882272,
            -471.91765506685829,
            1.0
         ],
         "name" : "Camera Node"
      },
      {
         "children" : [ 0, 1 ],
         "name" : "Renderer Node"
      },
      {
         "name" : "Renderer Node"
      },
      {
         "matrix" : 
         [
            0.0,
            -0.80000001192092918,
            0.0,
            0.0,
            0.80000001192092918,
            0.0,
            0.0,
            0.0,
            0.0,
            0.0,
            0.80000001192092918,
            0.0,
            0.0,
            0.0,
            0.0,
            1.0
         ],
         "mesh" : 1,
         "name" : "mesh1"
      },
      {
         "matrix" : 
         [
            0.80000001192092896,
            0.0,
            0.0,
            0.0,
            0.0,
            0.80000001192092896,
            0.0,
            0.0,
            0.0,
            0.0,
            0.80000001192092896,
            0.0,
            0.0,
            0.0,
            0.0,
            1.0
         ],
         "mesh" : 2,
         "name" : "mesh2"
      },
      {
         "matrix" : 
         [
            0.80000001192092918,
            0.0,
            0.0,
            0.0,
            0.0,
            0.0,
            0.80000001192092918,
            0.0,
            0.0,
            -0.80000001192092918,
            0.0,
            0.0,
            0.0,
            0.0,
            0.0,
            1.0
         ],
         "mesh" : 3,
         "name" : "mesh3"
      },
      {
         "matrix" : 
         [
            0.0,
            -0.20000000298023229,
            0.0,
            0.0,
            0.20000000298023229,
            0.0,
            0.0,
            0.0,
            0.0,
            0.0,
            0.20000000298023229,
            0.0,
            0.8999999985098841,
            0.0,
            0.0,
            1.0
         ],
         "mesh" : 4,
         "name" : "mesh4"
      },
      {
         "matrix" : 
         [
            0.20000000298023224,
            0.0,
            0.0,
            0.0,
            0.0,
            0.20000000298023224,
            0.0,
            0.0,
            0.0,
            0.0,
            0.20000000298023224,
            0.0,
            0.0,
            0.89999999850988388,
            0.0,
            1.0
         ],
         "mesh" : 5,
         "name" : "mesh5"
      },
      {
         "matrix" : 
         [
            0.20000000298023229,
            0.0,
            0.0,
            0.0,
            0.0,
            0.0,
            0.20000000298023229,
            0.0,
            0.0,
            -0.20000000298023229,
            0.0,
            0.0,
            0.0,
            0.0,
            0.8999999985098841,
            1.0
         ],
         "mesh" : 6,
         "name" : "mesh6"
      },
      {
         "matrix" : 
         [
            0.0031819166720048089,
            -0.013294634689559713,
            -0.19953227630350051,
            0.0,
            -0.1590890911516121,
            0.12074222752599076,
            -0.010581907233993267,
            0.0,
            0.12116326867058091,
            0.15888539383035163,
            -0.0086541980869164099,
            0.0,
            0.80000001192092918,
            0.0,
            0.0,
            1.0
         ],
         "mesh" : 7,
         "name" : "mesh7"
      },
      {
         "matrix" : 
         [
            0.0016353761256819271,
            -0.014787937056404792,
            -0.19944584140722579,
            0.0,
            -0.13428667197321076,
            0.1477220121350156,
            -0.012053964212428275,
            0.0,
            0.14820396913503953,
            0.13401315323687826,
            -0.0087212088738969507,
            0.0,
            0.0,
            0.80000001192092896,
            0.0,
            1.0
         ],
         "mesh" : 8,
         "name" : "mesh8"
      },
      {
         "matrix" : 
         [
            -0.012951336145385121,
            -0.030895818310778582,
            -0.19717432006995611,
            0.0,
            -0.14776283993558298,
            0.13430404843412874,
            -0.011338734517898489,
            0.0,
            0.13415814257179259,
            0.14494092650871063,
            -0.031523353193720009,
            0.0,
            0.0,
            0.0,
            0.80000001192092918,
            1.0
         ],
         "mesh" : 9,
         "name" : "mesh9"
      },
      {
         "camera" : 1,
         "matrix" : 
         [
            0.014752115955947602,
            -0.73423099385545676,
            0.67873943655636382,
            0.0,
            -0.06799083796573685,
            0.67650555026290882,
            0.73329222443456721,
            0.0,
            -0.99757687474577073,
            -0.056965674976312747,
            -0.039941092210327718,
            0.0,
            0.0,
            1.7347234759768071e-17,
            -6.6921304299024653,
            1.0
         ],
         "name" : "Camera Node"
      },
      {
         "children" : [ 4, 5, 6, 7, 8, 9, 10, 11, 12, 13 ],
         "name" : "Renderer Node"
      }
   ],
   "scene" : 0,
   "scenes" : 
   [
      {
         "name" : "Layer 0",
         "nodes" : [ 2, 3, 14 ]
      }
   ]
}