{
   "accessors" : 
   [
      {
         "bufferView" : 0,
         "byteOffset" : 0,
         "componentType" : 5126,
         "count" : 31401,
         "max" : [ 163.35888671875, 216.69322204589844, 220.54032897949219 ],
         "min" : [ 8.7200241088867188, 64.003509521484375, 29.411603927612305 ],
         "type" : "VEC3"
      },
      {
         "bufferView" : 1,
         "byteOffset" : 0,
         "componentType" : 5125,
         "count" : 188412,
         "type" : "SCALAR"
      },
      {
         "bufferView" : 2,
         "byteOffset" : 0,
         "componentType" : 5126,
         "count" : 2,
         "max" : [ 0.0, 1.0, 0.0 ],
         "min" : [ 0.0, 0.0, 0.0 ],
         "type" : "VEC3"
      },
      {
         "bufferView" : 3,
         "byteOffset" : 0,
         "componentType" : 5126,
         "count" : 2,
         "normalized" : false,
         "type" : "VEC2"
      },
      {
         "bufferView" : 4,
         "byteOffset" : 0,
         "componentType" : 5125,
         "count" : 2,
         "type" : "SCALAR"
      },
      {
         "bufferView" : 5,
         "byteOffset" : 0,
         "componentType" : 5126,
         "count" : 2,
         "max" : [ 0.0, 1.0, 0.0 ],
         "min" : [ 0.0, 0.0, 0.0 ],
         "type" : "VEC3"
      },
      {
         "bufferView" : 6,
         "byteOffset" : 0,
         "componentType" : 5126,
         "count" : 2,
         "normalized" : false,
         "type" : "VEC2"
      },
      {
         "bufferView" : 7,
         "byteOffset" : 0,
         "componentType" : 5125,
         "count" : 2,
         "type" : "SCALAR"
      },
      {
         "bufferView" : 8,
         "byteOffset" : 0,
         "componentType" : 5126,
         "count" : 2,
         "max" : [ 0.0, 1.0, 0.0 ],
         "min" : [ 0.0, 0.0, 0.0 ],
         "type" : "VEC3"
      },
      {
         "bufferView" : 9,
         "byteOffset" : 0,
         "componentType" : 5126,
         "count" : 2,
         "normalized" : false,
         "type" : "VEC2"
      },
      {
         "bufferView" : 10,
         "byteOffset" : 0,
         "componentType" : 5125,
         "count" : 2,
         "type" : "SCALAR"
      },
      {
         "bufferView" : 11,
         "byteOffset" : 0,
         "componentType" : 5126,
         "count" : 17,
         "max" : [ 0.40000000596046448, 0.5, 0.40000000596046448 ],
         "min" : [ -0.40000000596046448, -0.5, -0.40000000596046448 ],
         "type" : "VEC3"
      },
      {
         "bufferView" : 12,
         "byteOffset" : 0,
         "componentType" : 5125,
         "count" : 90,
         "type" : "SCALAR"
      },
      {
         "bufferView" : 13,
         "byteOffset" : 0,
         "componentType" : 5126,
         "count" : 17,
         "max" : [ 0.40000000596046448, 0.5, 0.40000000596046448 ],
         "min" : [ -0.40000000596046448, -0.5, -0.40000000596046448 ],
         "type" : "VEC3"
      },
      {
         "bufferView" : 14,
         "byteOffset" : 0,
         "componentType" : 5125,
         "count" : 90,
         "type" : "SCALAR"
      },
      {
         "bufferView" : 15,
         "byteOffset" : 0,
         "componentType" : 5126,
         "count" : 17,
         "max" : [ 0.40000000596046448, 0.5, 0.40000000596046448 ],
         "min" : [ -0.40000000596046448, -0.5, -0.40000000596046448 ],
         "type" : "VEC3"
      },
      {
         "bufferView" : 16,
         "byteOffset" : 0,
         "componentType" : 5125,
         "count" : 90,
         "type" : "SCALAR"
      },
      {
         "bufferView" : 17,
         "byteOffset" : 0,
         "componentType" : 5126,
         "count" : 14,
         "max" : [ 1.1411700248718262, 1.0264400243759155, 0.0 ],
         "min" : [ 0.1519400030374527, -0.071429997682571411, 0.0 ],
         "type" : "VEC3"
      },
      {
         "bufferView" : 18,
         "byteOffset" : 0,
         "componentType" : 5125,
         "count" : 36,
         "type" : "SCALAR"
      },
      {
         "bufferView" : 19,
         "byteOffset" : 0,
         "componentType" : 5126,
         "count" : 12,
         "max" : [ 1.1452100276947021, 1.0257099866867065, 0.0 ],
         "min" : [ 0.15284000337123871, -0.071429997682571411, 0.0 ],
         "type" : "VEC3"
      },
      {
         "bufferView" : 20,
         "byteOffset" : 0,
         "componentType" : 5125,
         "count" : 30,
         "type" : "SCALAR"
      },
      {
         "bufferView" : 21,
         "byteOffset" : 0,
         "componentType" : 5126,
         "count" : 11,
         "max" : [ 1.0399999618530273, 1.0261499881744385, 0.0 ],
         "min" : [ 0.17395000159740448, -0.071860000491142273, 0.0 ],
         "type" : "VEC3"
      },
      {
         "bufferView" : 22,
         "byteOffset" : 0,
         "componentType" : 5125,
         "count" : 27,
         "type" : "SCALAR"
      }
   ],
   "asset" : 
   {
      "generator" : "VTK",
      "version" : "2.0"
   },
   "bufferViews" : 
   [
      {
         "buffer" : 0,
         "byteLength" : 376812,
         "byteOffset" : 0
      },
      {
         "buffer" : 1,
         "byteLength" : 753648,
         "byteOffset" : 0
      },
      {
         "buffer" : 2,
         "byteLength" : 24,
         "byteOffset" : 0
      },
      {
         "buffer" : 3,
         "byteLength" : 16,
         "byteOffset" : 0
      },
      {
         "buffer" : 4,
         "byteLength" : 8,
         "byteOffset" : 0
      },
      {
         "buffer" : 5,
         "byteLength" : 24,
         "byteOffset" : 0
      },
      {
         "buffer" : 6,
         "byteLength" : 16,
         "byteOffset" : 0
      },
      {
         "buffer" : 7,
         "byteLength" : 8,
         "byteOffset" : 0
      },
      {
         "buffer" : 8,
         "byteLength" : 24,
         "byteOffset" : 0
      },
      {
         "buffer" : 9,
         "byteLength" : 16,
         "byteOffset" : 0
      },
      {
         "buffer" : 10,
         "byteLength" : 8,
         "byteOffset" : 0
      },
      {
         "buffer" : 11,
         "byteLength" : 204,
         "byteOffset" : 0
      },
      {
         "buffer" : 12,
         "byteLength" : 360,
         "byteOffset" : 0
      },
      {
         "buffer" : 13,
         "byteLength" : 204,
         "byteOffset" : 0
      },
      {
         "buffer" : 14,
         "byteLength" : 360,
         "byteOffset" : 0
      },
      {
         "buffer" : 15,
         "byteLength" : 204,
         "byteOffset" : 0
      },
      {
         "buffer" : 16,
         "byteLength" : 360,
         "byteOffset" : 0
      },
      {
         "buffer" : 17,
         "byteLength" : 168,
         "byteOffset" : 0
      },
      {
         "buffer" : 18,
         "byteLength" : 144,
         "byteOffset" : 0
      },
      {
         "buffer" : 19,
         "byteLength" : 144,
         "byteOffset" : 0
      },
      {
         "buffer" : 20,
         "byteLength" : 120,
         "byteOffset" : 0
      },
      {
         "buffer" : 21,
         "byteLength" : 132,
         "byteOffset" : 0
      },
      {
         "buffer" : 22,
         "byteLength" : 108,
         "byteOffset" : 0
      }
   ],
   "buffers" : 
   [
      {
         "byteLength" : 376812,
         "uri" : "buffer280919.bin"
      },
      {
         "byteLength" : 753648,
         "uri" : "buffer617561.bin"
      },
      {
         "byteLength" : 24,
         "uri" : "buffer92184.bin"
      },
      {
         "byteLength" : 16,
         "uri" : "buffer92188.bin"
      },
      {
         "byteLength" : 8,
         "uri" : "buffer617886.bin"
      },
      {
         "byteLength" : 24,
         "uri" : "buffer92184.bin"
      },
      {
         "byteLength" : 16,
         "uri" : "buffer92188.bin"
      },
      {
         "byteLength" : 8,
         "uri" : "buffer618134.bin"
      },
      {
         "byteLength" : 24,
         "uri" : "buffer92184.bin"
      },
      {
         "byteLength" : 16,
         "uri" : "buffer92188.bin"
      },
      {
         "byteLength" : 8,
         "uri" : "buffer618382.bin"
      },
      {
         "byteLength" : 204,
         "uri" : "buffer92059.bin"
      },
      {
         "byteLength" : 360,
         "uri" : "buffer618766.bin"
      },
      {
         "byteLength" : 204,
         "uri" : "buffer92059.bin"
      },
      {
         "byteLength" : 360,
         "uri" : "buffer619149.bin"
      },
      {
         "byteLength" : 204,
         "uri" : "buffer92059.bin"
      },
      {
         "byteLength" : 360,
         "uri" : "buffer619532.bin"
      },
      {
         "byteLength" : 168,
         "uri" : "buffer223495.bin"
      },
      {
         "byteLength" : 144,
         "uri" : "buffer619892.bin"
      },
      {
         "byteLength" : 144,
         "uri" : "buffer223686.bin"
      },
      {
         "byteLength" : 120,
         "uri" : "buffer620252.bin"
      },
      {
         "byteLength" : 132,
         "uri" : "buffer223877.bin"
      },
      {
         "byteLength" : 108,
         "uri" : "buffer620612.bin"
      }
   ],
   "cameras" : 
   [
      {
         "perspective" : 
         {
            "aspectRatio" : 1.5176678445229681,
            "yfov" : 30.0,
            "zfar" : 910.14740872625885,
            "znear" : 281.28649889208077
         },
         "type" : "perspective"
      },
      {
         "perspective" : 
         {
            "aspectRatio" : 1.0,
            "yfov" : 30.0,
            "zfar" : 10.757128087323698,
            "znear" : 3.4756740976850136
         },
         "type" : "perspective"
      }
   ],
   "materials" : 
   [
      {
         "pbrMetallicRoughness" : 
         {
            "baseColorFactor" : [ 1.0, 1.0, 1.0, 1.0 ],
            "metallicFactor" : 0.0,
            "roughnessFactor" : 1.0
         }
      },
      {
         "pbrMetallicRoughness" : 
         {
            "baseColorFactor" : [ 1.0, 0.0, 0.0, 1.0 ],
            "metallicFactor" : 0.0,
            "roughnessFactor" : 1.0
         }
      },
      {
         "pbrMetallicRoughness" : 
         {
            "baseColorFactor" : [ 1.0, 1.0, 0.0, 1.0 ],
            "metallicFactor" : 0.0,
            "roughnessFactor" : 1.0
         }
      },
      {
         "pbrMetallicRoughness" : 
         {
            "baseColorFactor" : [ 0.0, 1.0, 0.0, 1.0 ],
            "metallicFactor" : 0.0,
            "roughnessFactor" : 1.0
         }
      },
      {
         "pbrMetallicRoughness" : 
         {
            "baseColorFactor" : [ 1.0, 0.0, 0.0, 1.0 ],
            "metallicFactor" : 0.0,
            "roughnessFactor" : 1.0
         }
      },
      {
         "pbrMetallicRoughness" : 
         {
            "baseColorFactor" : [ 1.0, 1.0, 0.0, 1.0 ],
            "metallicFactor" : 0.0,
            "roughnessFactor" : 1.0
         }
      },
      {
         "pbrMetallicRoughness" : 
         {
            "baseColorFactor" : [ 0.0, 1.0, 0.0, 1.0 ],
            "metallicFactor" : 0.0,
            "roughnessFactor" : 1.0
         }
      },
      {
         "pbrMetallicRoughness" : 
         {
            "baseColorFactor" : [ 1.0, 1.0, 1.0, 1.0 ],
            "metallicFactor" : 0.0,
            "roughnessFactor" : 1.0
         }
      },
      {
         "pbrMetallicRoughness" : 
         {
            "baseColorFactor" : [ 1.0, 1.0, 1.0, 1.0 ],
            "metallicFactor" : 0.0,
            "roughnessFactor" : 1.0
         }
      },
      {
         "pbrMetallicRoughness" : 
         {
            "baseColorFactor" : [ 1.0, 1.0, 1.0, 1.0 ],
            "metallicFactor" : 0.0,
            "roughnessFactor" : 1.0
         }
      }
   ],
   "meshes" : 
   [
      {
         "name" : "mesh0",
         "primitives" : 
         [
            {
               "attributes" : 
               {
                  "POSITION" : 0
               },
               "indices" : 1,
               "material" : 0,
               "mode" : 4
            }
         ]
      },
      {
         "name" : "mesh1",
         "primitives" : 
         [
            {
               "attributes" : 
               {
                  "POSITION" : 2,
                  "TEXCOORD_0" : 3
               },
               "indices" : 4,
               "material" : 1,
               "mode" : 1
            }
         ]
      },
      {
         "name" : "mesh2",
         "primitives" : 
         [
            {
               "attributes" : 
               {
                  "POSITION" : 5,
                  "TEXCOORD_0" : 6
               },
               "indices" : 7,
               "material" : 2,
               "mode" : 1
            }
         ]
      },
      {
         "name" : "mesh3",
         "primitives" : 
         [
            {
               "attributes" : 
               {
                  "POSITION" : 8,
                  "TEXCOORD_0" : 9
               },
               "indices" : 10,
               "material" : 3,
               "mode" : 1
            }
         ]
      },
      {
         "name" : "mesh4",
         "primitives" : 
         [
            {
               "attributes" : 
               {
                  "POSITION" : 11
               },
               "indices" : 12,
               "material" : 4,
               "mode" : 4
            }
         ]
      },
      {
         "name" : "mesh5",
         "primitives" : 
         [
            {
               "attributes" : 
               {
                  "POSITION" : 13
               },
               "indices" : 14,
               "material" : 5,
               "mode" : 4
            }
         ]
      },
      {
         "name" : "mesh6",
         "primitives" : 
         [
            {
               "attributes" : 
               {
                  "POSITION" : 15
               },
               "indices" : 16,
               "material" : 6,
               "mode" : 4
            }
         ]
      },
      {
         "name" : "mesh7",
         "primitives" : 
         [
            {
               "attributes" : 
               {
                  "POSITION" : 17
               },
               "indices" : 18,
               "material" : 7,
               "mode" : 4
            }
         ]
      },
      {
         "name" : "mesh8",
         "primitives" : 
         [
            {
               "attributes" : 
               {
                  "POSITION" : 19
               },
               "indices" : 20,
               "material" : 8,
               "mode" : 4
            }
         ]
      },
      {
         "name" : "mesh9",
         "primitives" : 
         [
            {
               "attributes" : 
               {
                  "POSITION" : 21
               },
               "indices" : 22,
               "material" : 9,
               "mode" : 4
            }
         ]
      }
   ],
   "nodes" : 
   [
      {
         "matrix" : 
         [
            1.0,
            0.0,
            0.0,
            0.0,
            0.0,
            1.0,
            0.0,
            0.0,
            0.0,
            0.0,
            1.0,
            0.0,
            0.0,
            0.0,
            0.0,
            1.0
         ],
         "mesh" : 0,
         "name" : "mesh0"
      },
      {
         "camera" : 0,
         "matrix" : 
         [
            -0.16980410344593486,
            -0.81737577408920736,
            -0.55051195299011579,
            0.0,
            -0.91058477915118741,
            0.34374504190090438,
            -0.22950970817533772,
            0.0,
            0.37683142972834072,
            0.46231611490474211,
            -0.80265925738652022,
            0.0,
            95.314066128519329,
            -35.695891673226527,
            -379.20489849062187,
            1.0
         ],
         "name" : "Camera Node"
      },
      {
         "children" : [ 0, 1 ],
         "name" : "Renderer Node"
      },
      {
         "name" : "Renderer Node"
      },
      {
         "matrix" : 
         [
            0.0,
            -0.80000001192092918,
            0.0,
            0.0,
            0.80000001192092918,
            0.0,
            0.0,
            0.0,
            0.0,
            0.0,
            0.80000001192092918,
            0.0,
            0.0,
            0.0,
            0.0,
            1.0
         ],
         "mesh" : 1,
         "name" : "mesh1"
      },
      {
         "matrix" : 
         [
            0.80000001192092896,
            0.0,
            0.0,
            0.0,
            0.0,
            0.80000001192092896,
            0.0,
            0.0,
            0.0,
            0.0,
            0.80000001192092896,
            0.0,
            0.0,
            0.0,
            0.0,
            1.0
         ],
         "mesh" : 2,
         "name" : "mesh2"
      },
      {
         "matrix" : 
         [
            0.80000001192092918,
            0.0,
            0.0,
            0.0,
            0.0,
            0.0,
            0.80000001192092918,
            0.0,
            0.0,
            -0.80000001192092918,
            0.0,
            0.0,
            0.0,
            0.0,
            0.0,
            1.0
         ],
         "mesh" : 3,
         "name" : "mesh3"
      },
      {
         "matrix" : 
         [
            0.0,
            -0.20000000298023229,
            0.0,
            0.0,
            0.20000000298023229,
            0.0,
            0.0,
            0.0,
            0.0,
            0.0,
            0.20000000298023229,
            0.0,
            0.8999999985098841,
            0.0,
            0.0,
            1.0
         ],
         "mesh" : 4,
         "name" : "mesh4"
      },
      {
         "matrix" : 
         [
            0.20000000298023224,
            0.0,
            0.0,
            0.0,
            0.0,
            0.20000000298023224,
            0.0,
            0.0,
            0.0,
            0.0,
            0.20000000298023224,
            0.0,
            0.0,
            0.89999999850988388,
            0.0,
            1.0
         ],
         "mesh" : 5,
         "name" : "mesh5"
      },
      {
         "matrix" : 
         [
            0.20000000298023229,
            0.0,
            0.0,
            0.0,
            0.0,
            0.0,
            0.20000000298023229,
            0.0,
            0.0,
            -0.20000000298023229,
            0.0,
            0.0,
            0.0,
            0.0,
            0.8999999985098841,
            1.0
         ],
         "mesh" : 6,
         "name" : "mesh6"
      },
      {
         "matrix" : 
         [
            -0.03159259497305706,
            -0.18133644517289735,
            0.078224055040748572,
            0.0,
            -0.15274058884691979,
            0.07265254939966638,
            0.1067329413841769,
            0.0,
            -0.12518874411726269,
            -0.042880087568459208,
            -0.14996358767566445,
            0.0,
            0.80000001192092918,
            0.0,
            0.0,
            1.0
         ],
         "mesh" : 7,
         "name" : "mesh7"
      },
      {
         "matrix" : 
         [
            -0.022878130034939256,
            -0.17598728068066521,
            0.09222293313933401,
            0.0,
            -0.16774460726006477,
            0.066859701922737713,
            0.085973997150662881,
            0.0,
            -0.10648163735294428,
            -0.067514876060912124,
            -0.15525270886270759,
            0.0,
            0.0,
            0.80000001192092896,
            0.0,
            1.0
         ],
         "mesh" : 8,
         "name" : "mesh8"
      },
      {
         "matrix" : 
         [
            -0.038104874491306756,
            -0.18398608873040842,
            0.068535676007324423,
            0.0,
            -0.16881290584569902,
            0.066349950089087381,
            0.084260833933682819,
            0.0,
            -0.10025079826128977,
            -0.041794789973808935,
            -0.16793741146960758,
            0.0,
            0.0,
            0.0,
            0.80000001192092918,
            1.0
         ],
         "mesh" : 9,
         "name" : "mesh9"
      },
      {
         "camera" : 1,
         "matrix" : 
         [
            -0.16980410344593491,
            -0.81737577408920725,
            -0.55051195299011568,
            0.0,
            -0.91058477915118741,
            0.34374504190090438,
            -0.2295097081753377,
            0.0,
            0.37683142972834072,
            0.462316114904742,
            -0.80265925738652011,
            0.0,
            -4.4408920985006262e-16,
            0.0,
            -6.6921304299024662,
            1.0
         ],
         "name" : "Camera Node"
      },
      {
         "children" : [ 4, 5, 6, 7, 8, 9, 10, 11, 12, 13 ],
         "name" : "Renderer Node"
      }
   ],
   "scene" : 0,
   "scenes" : 
   [
      {
         "name" : "Layer 0",
         "nodes" : [ 2, 3, 14 ]
      }
   ]
}