{
   "accessors" : 
   [
      {
         "bufferView" : 0,
         "byteOffset" : 0,
         "componentType" : 5126,
         "count" : 31401,
         "max" : [ 83.35888671875, 76.693222045898438, 95.540328979492188 ],
         "min" : [ -71.279975891113281, -75.996490478515625, -95.588394165039063 ],
         "type" : "VEC3"
      },
      {
         "bufferView" : 1,
         "byteOffset" : 0,
         "componentType" : 5125,
         "count" : 188412,
         "type" : "SCALAR"
      },
      {
         "bufferView" : 2,
         "byteOffset" : 0,
         "componentType" : 5126,
         "count" : 2,
         "max" : [ 0.0, 1.0, 0.0 ],
         "min" : [ 0.0, 0.0, 0.0 ],
         "type" : "VEC3"
      },
      {
         "bufferView" : 3,
         "byteOffset" : 0,
         "componentType" : 5126,
         "count" : 2,
         "normalized" : false,
         "type" : "VEC2"
      },
      {
         "bufferView" : 4,
         "byteOffset" : 0,
         "componentType" : 5125,
         "count" : 2,
         "type" : "SCALAR"
      },
      {
         "bufferView" : 5,
         "byteOffset" : 0,
         "componentType" : 5126,
         "count" : 2,
         "max" : [ 0.0, 1.0, 0.0 ],
         "min" : [ 0.0, 0.0, 0.0 ],
         "type" : "VEC3"
      },
      {
         "bufferView" : 6,
         "byteOffset" : 0,
         "componentType" : 5126,
         "count" : 2,
         "normalized" : false,
         "type" : "VEC2"
      },
      {
         "bufferView" : 7,
         "byteOffset" : 0,
         "componentType" : 5125,
         "count" : 2,
         "type" : "SCALAR"
      },
      {
         "bufferView" : 8,
         "byteOffset" : 0,
         "componentType" : 5126,
         "count" : 2,
         "max" : [ 0.0, 1.0, 0.0 ],
         "min" : [ 0.0, 0.0, 0.0 ],
         "type" : "VEC3"
      },
      {
         "bufferView" : 9,
         "byteOffset" : 0,
         "componentType" : 5126,
         "count" : 2,
         "normalized" : false,
         "type" : "VEC2"
      },
      {
         "bufferView" : 10,
         "byteOffset" : 0,
         "componentType" : 5125,
         "count" : 2,
         "type" : "SCALAR"
      },
      {
         "bufferView" : 11,
         "byteOffset" : 0,
         "componentType" : 5126,
         "count" : 17,
         "max" : [ 0.40000000596046448, 0.5, 0.40000000596046448 ],
         "min" : [ -0.40000000596046448, -0.5, -0.40000000596046448 ],
         "type" : "VEC3"
      },
      {
         "bufferView" : 12,
         "byteOffset" : 0,
         "componentType" : 5125,
         "count" : 90,
         "type" : "SCALAR"
      },
      {
         "bufferView" : 13,
         "byteOffset" : 0,
         "componentType" : 5126,
         "count" : 17,
         "max" : [ 0.40000000596046448, 0.5, 0.40000000596046448 ],
         "min" : [ -0.40000000596046448, -0.5, -0.40000000596046448 ],
         "type" : "VEC3"
      },
      {
         "bufferView" : 14,
         "byteOffset" : 0,
         "componentType" : 5125,
         "count" : 90,
         "type" : "SCALAR"
      },
      {
         "bufferView" : 15,
         "byteOffset" : 0,
         "componentType" : 5126,
         "count" : 17,
         "max" : [ 0.40000000596046448, 0.5, 0.40000000596046448 ],
         "min" : [ -0.40000000596046448, -0.5, -0.40000000596046448 ],
         "type" : "VEC3"
      },
      {
         "bufferView" : 16,
         "byteOffset" : 0,
         "componentType" : 5125,
         "count" : 90,
         "type" : "SCALAR"
      },
      {
         "bufferView" : 17,
         "byteOffset" : 0,
         "componentType" : 5126,
         "count" : 14,
         "max" : [ 1.1411700248718262, 1.0264400243759155, 0.0 ],
         "min" : [ 0.1519400030374527, -0.071429997682571411, 0.0 ],
         "type" : "VEC3"
      },
      {
         "bufferView" : 18,
         "byteOffset" : 0,
         "componentType" : 5125,
         "count" : 36,
         "type" : "SCALAR"
      },
      {
         "bufferView" : 19,
         "byteOffset" : 0,
         "componentType" : 5126,
         "count" : 12,
         "max" : [ 1.1452100276947021, 1.0257099866867065, 0.0 ],
         "min" : [ 0.15284000337123871, -0.071429997682571411, 0.0 ],
         "type" : "VEC3"
      },
      {
         "bufferView" : 20,
         "byteOffset" : 0,
         "componentType" : 5125,
         "count" : 30,
         "type" : "SCALAR"
      },
      {
         "bufferView" : 21,
         "byteOffset" : 0,
         "componentType" : 5126,
         "count" : 11,
         "max" : [ 1.0399999618530273, 1.0261499881744385, 0.0 ],
         "min" : [ 0.17395000159740448, -0.071860000491142273, 0.0 ],
         "type" : "VEC3"
      },
      {
         "bufferView" : 22,
         "byteOffset" : 0,
         "componentType" : 5125,
         "count" : 27,
         "type" : "SCALAR"
      }
   ],
   "asset" : 
   {
      "generator" : "VTK",
      "version" : "2.0"
   },
   "bufferViews" : 
   [
      {
         "buffer" : 0,
         "byteLength" : 376812,
         "byteOffset" : 0
      },
      {
         "buffer" : 1,
         "byteLength" : 753648,
         "byteOffset" : 0
      },
      {
         "buffer" : 2,
         "byteLength" : 24,
         "byteOffset" : 0
      },
      {
         "buffer" : 3,
         "byteLength" : 16,
         "byteOffset" : 0
      },
      {
         "buffer" : 4,
         "byteLength" : 8,
         "byteOffset" : 0
      },
      {
         "buffer" : 5,
         "byteLength" : 24,
         "byteOffset" : 0
      },
      {
         "buffer" : 6,
         "byteLength" : 16,
         "byteOffset" : 0
      },
      {
         "buffer" : 7,
         "byteLength" : 8,
         "byteOffset" : 0
      },
      {
         "buffer" : 8,
         "byteLength" : 24,
         "byteOffset" : 0
      },
      {
         "buffer" : 9,
         "byteLength" : 16,
         "byteOffset" : 0
      },
      {
         "buffer" : 10,
         "byteLength" : 8,
         "byteOffset" : 0
      },
      {
         "buffer" : 11,
         "byteLength" : 204,
         "byteOffset" : 0
      },
      {
         "buffer" : 12,
         "byteLength" : 360,
         "byteOffset" : 0
      },
      {
         "buffer" : 13,
         "byteLength" : 204,
         "byteOffset" : 0
      },
      {
         "buffer" : 14,
         "byteLength" : 360,
         "byteOffset" : 0
      },
      {
         "buffer" : 15,
         "byteLength" : 204,
         "byteOffset" : 0
      },
      {
         "buffer" : 16,
         "byteLength" : 360,
         "byteOffset" : 0
      },
      {
         "buffer" : 17,
         "byteLength" : 168,
         "byteOffset" : 0
      },
      {
         "buffer" : 18,
         "byteLength" : 144,
         "byteOffset" : 0
      },
      {
         "buffer" : 19,
         "byteLength" : 144,
         "byteOffset" : 0
      },
      {
         "buffer" : 20,
         "byteLength" : 120,
         "byteOffset" : 0
      },
      {
         "buffer" : 21,
         "byteLength" : 132,
         "byteOffset" : 0
      },
      {
         "buffer" : 22,
         "byteLength" : 108,
         "byteOffset" : 0
      }
   ],
   "buffers" : 
   [
      {
         "byteLength" : 376812,
         "uri" : "data:application/octet-stream;base64,"
      },
      {
         "byteLength" : 753648,
         "uri" : "data:application/octet-stream;base64,"
      },
      {
         "byteLength" : 24,
         "uri" : "data:application/octet-stream;base64,"
      },
      {
         "byteLength" : 16,
         "uri" : "data:application/octet-stream;base64,"
      },
      {
         "byteLength" : 8,
         "uri" : "data:application/octet-stream;base64,"
      },
      {
         "byteLength" : 24,
         "uri" : "data:application/octet-stream;base64,"
      },
      {
         "byteLength" : 16,
         "uri" : "data:application/octet-stream;base64,"
      },
      {
         "byteLength" : 8,
         "uri" : "data:application/octet-stream;base64,"
      },
      {
         "byteLength" : 24,
         "uri" : "data:application/octet-stream;base64,"
      },
      {
         "byteLength" : 16,
         "uri" : "data:application/octet-stream;base64,"
      },
      {
         "byteLength" : 8,
         "uri" : "data:application/octet-stream;base64,"
      },
      {
         "byteLength" : 204,
         "uri" : "data:application/octet-stream;base64,"
      },
      {
         "byteLength" : 360,
         "uri" : "data:application/octet-stream;base64,"
      },
      {
         "byteLength" : 204,
         "uri" : "data:application/octet-stream;base64,"
      },
      {
         "byteLength" : 360,
         "uri" : "data:application/octet-stream;base64,"
      },
      {
         "byteLength" : 204,
         "uri" : "data:application/octet-stream;base64,"
      },
      {
         "byteLength" : 360,
         "uri" : "data:application/octet-stream;base64,"
      },
      {
         "byteLength" : 168,
         "uri" : "data:application/octet-stream;base64,"
      },
      {
         "byteLength" : 144,
         "uri" : "data:application/octet-stream;base64,"
      },
      {
         "byteLength" : 144,
         "uri" : "data:application/octet-stream;base64,"
      },
      {
         "byteLength" : 120,
         "uri" : "data:application/octet-stream;base64,"
      },
      {
         "byteLength" : 132,
         "uri" : "data:application/octet-stream;base64,"
      },
      {
         "byteLength" : 108,
         "uri" : "data:application/octet-stream;base64,"
      }
   ],
   "cameras" : 
   [
      {
         "perspective" : 
         {
            "aspectRatio" : 2.8197573656845756,
            "yfov" : 30.0,
            "zfar" : 1051.7643759737082,
            "znear" : 656.05783053906634
         },
         "type" : "perspective"
      },
      {
         "perspective" : 
         {
            "aspectRatio" : 1.0,
            "yfov" : 30.0,
            "zfar" : 9.4999953950405676,
            "znear" : 4.4743543602173181
         },
         "type" : "perspective"
      }
   ],
   "materials" : 
   [
      {
         "pbrMetallicRoughness" : 
         {
            "baseColorFactor" : [ 1.0, 0.33333333333333331, 0.0, 1.0 ],
            "metallicFactor" : 0.0,
            "roughnessFactor" : 1.0
         }
      },
      {
         "pbrMetallicRoughness" : 
         {
            "baseColorFactor" : [ 1.0, 0.0, 0.0, 1.0 ],
            "metallicFactor" : 0.0,
            "roughnessFactor" : 1.0
         }
      },
      {
         "pbrMetallicRoughness" : 
         {
            "baseColorFactor" : [ 1.0, 1.0, 0.0, 1.0 ],
            "metallicFactor" : 0.0,
            "roughnessFactor" : 1.0
         }
      },
      {
         "pbrMetallicRoughness" : 
         {
            "baseColorFactor" : [ 0.0, 1.0, 0.0, 1.0 ],
            "metallicFactor" : 0.0,
            "roughnessFactor" : 1.0
         }
      },
      {
         "pbrMetallicRoughness" : 
         {
            "baseColorFactor" : [ 1.0, 0.0, 0.0, 1.0 ],
            "metallicFactor" : 0.0,
            "roughnessFactor" : 1.0
         }
      },
      {
         "pbrMetallicRoughness" : 
         {
            "baseColorFactor" : [ 1.0, 1.0, 0.0, 1.0 ],
            "metallicFactor" : 0.0,
            "roughnessFactor" : 1.0
         }
      },
      {
         "pbrMetallicRoughness" : 
         {
            "baseColorFactor" : [ 0.0, 1.0, 0.0, 1.0 ],
            "metallicFactor" : 0.0,
            "roughnessFactor" : 1.0
         }
      },
      {
         "pbrMetallicRoughness" : 
         {
            "baseColorFactor" : [ 1.0, 1.0, 1.0, 1.0 ],
            "metallicFactor" : 0.0,
            "roughnessFactor" : 1.0
         }
      },
      {
         "pbrMetallicRoughness" : 
         {
            "baseColorFactor" : [ 1.0, 1.0, 1.0, 1.0 ],
            "metallicFactor" : 0.0,
            "roughnessFactor" : 1.0
         }
      },
      {
         "pbrMetallicRoughness" : 
         {
            "baseColorFactor" : [ 1.0, 1.0, 1.0, 1.0 ],
            "metallicFactor" : 0.0,
            "roughnessFactor" : 1.0
         }
      }
   ],
   "meshes" : 
   [
      {
         "name" : "mesh0",
         "primitives" : 
         [
            {
               "attributes" : 
               {
                  "POSITION" : 0
               },
               "indices" : 1,
               "material" : 0,
               "mode" : 4
            }
         ]
      },
      {
         "name" : "mesh1",
         "primitives" : 
         [
            {
               "attributes" : 
               {
                  "POSITION" : 2,
                  "TEXCOORD_0" : 3
               },
               "indices" : 4,
               "material" : 1,
               "mode" : 1
            }
         ]
      },
      {
         "name" : "mesh2",
         "primitives" : 
         [
            {
               "attributes" : 
               {
                  "POSITION" : 5,
                  "TEXCOORD_0" : 6
               },
               "indices" : 7,
               "material" : 2,
               "mode" : 1
            }
         ]
      },
      {
         "name" : "mesh3",
         "primitives" : 
         [
            {
               "attributes" : 
               {
                  "POSITION" : 8,
                  "TEXCOORD_0" : 9
               },
               "indices" : 10,
               "material" : 3,
               "mode" : 1
            }
         ]
      },
      {
         "name" : "mesh4",
         "primitives" : 
         [
            {
               "attributes" : 
               {
                  "POSITION" : 11
               },
               "indices" : 12,
               "material" : 4,
               "mode" : 4
            }
         ]
      },
      {
         "name" : "mesh5",
         "primitives" : 
         [
            {
               "attributes" : 
               {
                  "POSITION" : 13
               },
               "indices" : 14,
               "material" : 5,
               "mode" : 4
            }
         ]
      },
      {
         "name" : "mesh6",
         "primitives" : 
         [
            {
               "attributes" : 
               {
                  "POSITION" : 15
               },
               "indices" : 16,
               "material" : 6,
               "mode" : 4
            }
         ]
      },
      {
         "name" : "mesh7",
         "primitives" : 
         [
            {
               "attributes" : 
               {
                  "POSITION" : 17
               },
               "indices" : 18,
               "material" : 7,
               "mode" : 4
            }
         ]
      },
      {
         "name" : "mesh8",
         "primitives" : 
         [
            {
               "attributes" : 
               {
                  "POSITION" : 19
               },
               "indices" : 20,
               "material" : 8,
               "mode" : 4
            }
         ]
      },
      {
         "name" : "mesh9",
         "primitives" : 
         [
            {
               "attributes" : 
               {
                  "POSITION" : 21
               },
               "indices" : 22,
               "material" : 9,
               "mode" : 4
            }
         ]
      }
   ],
   "nodes" : 
   [
      {
         "matrix" : 
         [
            1.0,
            0.0,
            0.0,
            0.0,
            0.0,
            1.0,
            0.0,
            0.0,
            0.0,
            0.0,
            1.0,
            0.0,
            0.0,
            0.0,
            0.0,
            1.0
         ],
         "mesh" : 0,
         "name" : "mesh0"
      },
      {
         "camera" : 0,
         "matrix" : 
         [
            -0.01553309057556175,
            -0.99916781308715852,
            0.037714776783066402,
            0.0,
            -0.045446661249796169,
            -0.036974835317964312,
            -0.99828225594490838,
            0.0,
            0.99884599617679692,
            -0.017220419386140075,
            -0.044834507667061319,
            0.0,
            -250.0788296609899,
            -82.358378570052679,
            -830.23709684017194,
            1.0
         ],
         "name" : "Camera Node"
      },
      {
         "children" : [ 0, 1 ],
         "name" : "Renderer Node"
      },
      {
         "name" : "Renderer Node"
      },
      {
         "matrix" : 
         [
            0.0,
            -0.80000001192092918,
            0.0,
            0.0,
            0.80000001192092918,
            0.0,
            0.0,
            0.0,
            0.0,
            0.0,
            0.80000001192092918,
            0.0,
            0.0,
            0.0,
            0.0,
            1.0
         ],
         "mesh" : 1,
         "name" : "mesh1"
      },
      {
         "matrix" : 
         [
            0.80000001192092896,
            0.0,
            0.0,
            0.0,
            0.0,
            0.80000001192092896,
            0.0,
            0.0,
            0.0,
            0.0,
            0.80000001192092896,
            0.0,
            0.0,
            0.0,
            0.0,
            1.0
         ],
         "mesh" : 2,
         "name" : "mesh2"
      },
      {
         "matrix" : 
         [
            0.80000001192092918,
            0.0,
            0.0,
            0.0,
            0.0,
            0.0,
            0.80000001192092918,
            0.0,
            0.0,
            -0.80000001192092918,
            0.0,
            0.0,
            0.0,
            0.0,
            0.0,
            1.0
         ],
         "mesh" : 3,
         "name" : "mesh3"
      },
      {
         "matrix" : 
         [
            0.0,
            -0.20000000298023229,
            0.0,
            0.0,
            0.20000000298023229,
            0.0,
            0.0,
            0.0,
            0.0,
            0.0,
            0.20000000298023229,
            0.0,
            0.8999999985098841,
            0.0,
            0.0,
            1.0
         ],
         "mesh" : 4,
         "name" : "mesh4"
      },
      {
         "matrix" : 
         [
            0.20000000298023224,
            0.0,
            0.0,
            0.0,
            0.0,
            0.20000000298023224,
            0.0,
            0.0,
            0.0,
            0.0,
            0.20000000298023224,
            0.0,
            0.0,
            0.89999999850988388,
            0.0,
            1.0
         ],
         "mesh" : 5,
         "name" : "mesh5"
      },
      {
         "matrix" : 
         [
            0.20000000298023229,
            0.0,
            0.0,
            0.0,
            0.0,
            0.0,
            0.20000000298023229,
            0.0,
            0.0,
            -0.20000000298023229,
            0.0,
            0.0,
            0.0,
            0.0,
            0.8999999985098841,
            1.0
         ],
         "mesh" : 6,
         "name" : "mesh6"
      },
      {
         "matrix" : 
         [
            -0.0030763936935926236,
            -0.0087205544140954144,
            0.19978610793707788,
            0.0,
            -0.19930906925967956,
            0.016442851526807686,
            -0.0023513265618639802,
            0.0,
            -0.016322741950272706,
            -0.19913208118349757,
            -0.008943351208951171,
            0.0,
            0.80000001192092918,
            0.0,
            0.0,
            1.0
         ],
         "mesh" : 7,
         "name" : "mesh7"
      },
      {
         "matrix" : 
         [
            -0.0031393613002685932,
            -0.0081200523577959829,
            0.19981043604483209,
            0.0,
            -0.19986179333318224,
            -0.0066065023855267956,
            -0.0034086484076939643,
            0.0,
            0.0067386325292021773,
            -0.19972586229136574,
            -0.0080107400219765982,
            0.0,
            0.0,
            0.80000001192092896,
            0.0,
            1.0
         ],
         "mesh" : 8,
         "name" : "mesh8"
      },
      {
         "matrix" : 
         [
            -0.0022435828219086163,
            -0.032575058179615847,
            0.19731658093735757,
            0.0,
            -0.19984859169424479,
            -0.0069861333929875299,
            -0.0034257160033071801,
            0.0,
            0.0074503641549367875,
            -0.19720563054056783,
            -0.032472027179540328,
            0.0,
            0.0,
            0.0,
            0.80000001192092918,
            1.0
         ],
         "mesh" : 9,
         "name" : "mesh9"
      },
      {
         "camera" : 1,
         "matrix" : 
         [
            -0.01553309057556175,
            -0.99916781308715852,
            0.037714776783066402,
            0.0,
            -0.045446661249796169,
            -0.036974835317964312,
            -0.99828225594490838,
            0.0,
            0.99884599617679692,
            -0.017220419386140075,
            -0.044834507667061319,
            0.0,
            0.0,
            -1.3010426069826053e-17,
            -6.6921304299024644,
            1.0
         ],
         "name" : "Camera Node"
      },
      {
         "children" : [ 4, 5, 6, 7, 8, 9, 10, 11, 12, 13 ],
         "name" : "Renderer Node"
      }
   ],
   "scene" : 0,
   "scenes" : 
   [
      {
         "name" : "Layer 0",
         "nodes" : [ 2, 3, 14 ]
      }
   ]
}