{
   "accessors" : 
   [
      {
         "bufferView" : 0,
         "byteOffset" : 0,
         "componentType" : 5126,
         "count" : 6,
         "max" : [ 1.0, 1.0, 1.0 ],
         "min" : [ -1.0, -1.0, -1.0 ],
         "type" : "VEC3"
      },
      {
         "bufferView" : 1,
         "byteOffset" : 0,
         "componentType" : 5121,
         "count" : 6,
         "normalized" : true,
         "type" : "VEC4"
      },
      {
         "bufferView" : 2,
         "byteOffset" : 0,
         "componentType" : 5125,
         "count" : 6,
         "type" : "SCALAR"
      },
      {
         "bufferView" : 3,
         "byteOffset" : 0,
         "componentType" : 5126,
         "count" : 31401,
         "max" : [ 95.540328979492188, 76.693222045898438, 71.279975891113281 ],
         "min" : [ -95.588394165039063, -75.996490478515625, -83.35888671875 ],
         "type" : "VEC3"
      },
      {
         "bufferView" : 4,
         "byteOffset" : 0,
         "componentType" : 5125,
         "count" : 188412,
         "type" : "SCALAR"
      },
      {
         "bufferView" : 5,
         "byteOffset" : 0,
         "componentType" : 5126,
         "count" : 2,
         "max" : [ 0.0, 1.0, 0.0 ],
         "min" : [ 0.0, 0.0, 0.0 ],
         "type" : "VEC3"
      },
      {
         "bufferView" : 6,
         "byteOffset" : 0,
         "componentType" : 5126,
         "count" : 2,
         "normalized" : false,
         "type" : "VEC2"
      },
      {
         "bufferView" : 7,
         "byteOffset" : 0,
         "componentType" : 5125,
         "count" : 2,
         "type" : "SCALAR"
      },
      {
         "bufferView" : 8,
         "byteOffset" : 0,
         "componentType" : 5126,
         "count" : 2,
         "max" : [ 0.0, 1.0, 0.0 ],
         "min" : [ 0.0, 0.0, 0.0 ],
         "type" : "VEC3"
      },
      {
         "bufferView" : 9,
         "byteOffset" : 0,
         "componentType" : 5126,
         "count" : 2,
         "normalized" : false,
         "type" : "VEC2"
      },
      {
         "bufferView" : 10,
         "byteOffset" : 0,
         "componentType" : 5125,
         "count" : 2,
         "type" : "SCALAR"
      },
      {
         "bufferView" : 11,
         "byteOffset" : 0,
         "componentType" : 5126,
         "count" : 2,
         "max" : [ 0.0, 1.0, 0.0 ],
         "min" : [ 0.0, 0.0, 0.0 ],
         "type" : "VEC3"
      },
      {
         "bufferView" : 12,
         "byteOffset" : 0,
         "componentType" : 5126,
         "count" : 2,
         "normalized" : false,
         "type" : "VEC2"
      },
      {
         "bufferView" : 13,
         "byteOffset" : 0,
         "componentType" : 5125,
         "count" : 2,
         "type" : "SCALAR"
      },
      {
         "bufferView" : 14,
         "byteOffset" : 0,
         "componentType" : 5126,
         "count" : 17,
         "max" : [ 0.40000000596046448, 0.5, 0.40000000596046448 ],
         "min" : [ -0.40000000596046448, -0.5, -0.40000000596046448 ],
         "type" : "VEC3"
      },
      {
         "bufferView" : 15,
         "byteOffset" : 0,
         "componentType" : 5125,
         "count" : 90,
         "type" : "SCALAR"
      },
      {
         "bufferView" : 16,
         "byteOffset" : 0,
         "componentType" : 5126,
         "count" : 17,
         "max" : [ 0.40000000596046448, 0.5, 0.40000000596046448 ],
         "min" : [ -0.40000000596046448, -0.5, -0.40000000596046448 ],
         "type" : "VEC3"
      },
      {
         "bufferView" : 17,
         "byteOffset" : 0,
         "componentType" : 5125,
         "count" : 90,
         "type" : "SCALAR"
      },
      {
         "bufferView" : 18,
         "byteOffset" : 0,
         "componentType" : 5126,
         "count" : 17,
         "max" : [ 0.40000000596046448, 0.5, 0.40000000596046448 ],
         "min" : [ -0.40000000596046448, -0.5, -0.40000000596046448 ],
         "type" : "VEC3"
      },
      {
         "bufferView" : 19,
         "byteOffset" : 0,
         "componentType" : 5125,
         "count" : 90,
         "type" : "SCALAR"
      },
      {
         "bufferView" : 20,
         "byteOffset" : 0,
         "componentType" : 5126,
         "count" : 14,
         "max" : [ 1.1411700248718262, 1.0264400243759155, 0.0 ],
         "min" : [ 0.1519400030374527, -0.071429997682571411, 0.0 ],
         "type" : "VEC3"
      },
      {
         "bufferView" : 21,
         "byteOffset" : 0,
         "componentType" : 5125,
         "count" : 36,
         "type" : "SCALAR"
      },
      {
         "bufferView" : 22,
         "byteOffset" : 0,
         "componentType" : 5126,
         "count" : 12,
         "max" : [ 1.1452100276947021, 1.0257099866867065, 0.0 ],
         "min" : [ 0.15284000337123871, -0.071429997682571411, 0.0 ],
         "type" : "VEC3"
      },
      {
         "bufferView" : 23,
         "byteOffset" : 0,
         "componentType" : 5125,
         "count" : 30,
         "type" : "SCALAR"
      },
      {
         "bufferView" : 24,
         "byteOffset" : 0,
         "componentType" : 5126,
         "count" : 11,
         "max" : [ 1.0399999618530273, 1.0261499881744385, 0.0 ],
         "min" : [ 0.17395000159740448, -0.071860000491142273, 0.0 ],
         "type" : "VEC3"
      },
      {
         "bufferView" : 25,
         "byteOffset" : 0,
         "componentType" : 5125,
         "count" : 27,
         "type" : "SCALAR"
      }
   ],
   "asset" : 
   {
      "generator" : "VTK",
      "version" : "2.0"
   },
   "bufferViews" : 
   [
      {
         "buffer" : 0,
         "byteLength" : 72,
         "byteOffset" : 0
      },
      {
         "buffer" : 1,
         "byteLength" : 24,
         "byteOffset" : 0
      },
      {
         "buffer" : 2,
         "byteLength" : 24,
         "byteOffset" : 0
      },
      {
         "buffer" : 3,
         "byteLength" : 376812,
         "byteOffset" : 0
      },
      {
         "buffer" : 4,
         "byteLength" : 753648,
         "byteOffset" : 0
      },
      {
         "buffer" : 5,
         "byteLength" : 24,
         "byteOffset" : 0
      },
      {
         "buffer" : 6,
         "byteLength" : 16,
         "byteOffset" : 0
      },
      {
         "buffer" : 7,
         "byteLength" : 8,
         "byteOffset" : 0
      },
      {
         "buffer" : 8,
         "byteLength" : 24,
         "byteOffset" : 0
      },
      {
         "buffer" : 9,
         "byteLength" : 16,
         "byteOffset" : 0
      },
      {
         "buffer" : 10,
         "byteLength" : 8,
         "byteOffset" : 0
      },
      {
         "buffer" : 11,
         "byteLength" : 24,
         "byteOffset" : 0
      },
      {
         "buffer" : 12,
         "byteLength" : 16,
         "byteOffset" : 0
      },
      {
         "buffer" : 13,
         "byteLength" : 8,
         "byteOffset" : 0
      },
      {
         "buffer" : 14,
         "byteLength" : 204,
         "byteOffset" : 0
      },
      {
         "buffer" : 15,
         "byteLength" : 360,
         "byteOffset" : 0
      },
      {
         "buffer" : 16,
         "byteLength" : 204,
         "byteOffset" : 0
      },
      {
         "buffer" : 17,
         "byteLength" : 360,
         "byteOffset" : 0
      },
      {
         "buffer" : 18,
         "byteLength" : 204,
         "byteOffset" : 0
      },
      {
         "buffer" : 19,
         "byteLength" : 360,
         "byteOffset" : 0
      },
      {
         "buffer" : 20,
         "byteLength" : 168,
         "byteOffset" : 0
      },
      {
         "buffer" : 21,
         "byteLength" : 144,
         "byteOffset" : 0
      },
      {
         "buffer" : 22,
         "byteLength" : 144,
         "byteOffset" : 0
      },
      {
         "buffer" : 23,
         "byteLength" : 120,
         "byteOffset" : 0
      },
      {
         "buffer" : 24,
         "byteLength" : 132,
         "byteOffset" : 0
      },
      {
         "buffer" : 25,
         "byteLength" : 108,
         "byteOffset" : 0
      }
   ],
   "buffers" : 
   [
      {
         "byteLength" : 72,
         "uri" : "data:application/octet-stream;base64,"
      },
      {
         "byteLength" : 24,
         "uri" : "data:application/octet-stream;base64,"
      },
      {
         "byteLength" : 24,
         "uri" : "data:application/octet-stream;base64,"
      },
      {
         "byteLength" : 376812,
         "uri" : "data:application/octet-stream;base64,"
      },
      {
         "byteLength" : 753648,
         "uri" : "data:application/octet-stream;base64,"
      },
      {
         "byteLength" : 24,
         "uri" : "data:application/octet-stream;base64,"
      },
      {
         "byteLength" : 16,
         "uri" : "data:application/octet-stream;base64,"
      },
      {
         "byteLength" : 8,
         "uri" : "data:application/octet-stream;base64,"
      },
      {
         "byteLength" : 24,
         "uri" : "data:application/octet-stream;base64,"
      },
      {
         "byteLength" : 16,
         "uri" : "data:application/octet-stream;base64,"
      },
      {
         "byteLength" : 8,
         "uri" : "data:application/octet-stream;base64,"
      },
      {
         "byteLength" : 24,
         "uri" : "data:application/octet-stream;base64,"
      },
      {
         "byteLength" : 16,
         "uri" : "data:application/octet-stream;base64,"
      },
      {
         "byteLength" : 8,
         "uri" : "data:application/octet-stream;base64,"
      },
      {
         "byteLength" : 204,
         "uri" : "data:application/octet-stream;base64,"
      },
      {
         "byteLength" : 360,
         "uri" : "data:application/octet-stream;base64,"
      },
      {
         "byteLength" : 204,
         "uri" : "data:application/octet-stream;base64,"
      },
      {
         "byteLength" : 360,
         "uri" : "data:application/octet-stream;base64,"
      },
      {
         "byteLength" : 204,
         "uri" : "data:application/octet-stream;base64,"
      },
      {
         "byteLength" : 360,
         "uri" : "data:application/octet-stream;base64,"
      },
      {
         "byteLength" : 168,
         "uri" : "data:application/octet-stream;base64,"
      },
      {
         "byteLength" : 144,
         "uri" : "data:application/octet-stream;base64,"
      },
      {
         "byteLength" : 144,
         "uri" : "data:application/octet-stream;base64,"
      },
      {
         "byteLength" : 120,
         "uri" : "data:application/octet-stream;base64,"
      },
      {
         "byteLength" : 132,
         "uri" : "data:application/octet-stream;base64,"
      },
      {
         "byteLength" : 108,
         "uri" : "data:application/octet-stream;base64,"
      }
   ],
   "cameras" : 
   [
      {
         "perspective" : 
         {
            "aspectRatio" : 2.755281690140845,
            "yfov" : 30.0,
            "zfar" : 1265.3236588781754,
            "znear" : 832.08593715601853
         },
         "type" : "perspective"
      },
      {
         "perspective" : 
         {
            "aspectRatio" : 1.0,
            "yfov" : 30.0,
            "zfar" : 9.7538540242986809,
            "znear" : 4.2726862275931108
         },
         "type" : "perspective"
      }
   ],
   "materials" : 
   [
      {
         "pbrMetallicRoughness" : 
         {
            "baseColorFactor" : [ 1.0, 1.0, 1.0, 1.0 ],
            "metallicFactor" : 0.0,
            "roughnessFactor" : 1.0
         }
      },
      {
         "pbrMetallicRoughness" : 
         {
            "baseColorFactor" : [ 0.0, 0.0, 0.0, 0.059999999999999998 ],
            "metallicFactor" : 0.0,
            "roughnessFactor" : 1.0
         }
      },
      {
         "pbrMetallicRoughness" : 
         {
            "baseColorFactor" : [ 1.0, 0.0, 0.0, 1.0 ],
            "metallicFactor" : 0.0,
            "roughnessFactor" : 1.0
         }
      },
      {
         "pbrMetallicRoughness" : 
         {
            "baseColorFactor" : [ 1.0, 1.0, 0.0, 1.0 ],
            "metallicFactor" : 0.0,
            "roughnessFactor" : 1.0
         }
      },
      {
         "pbrMetallicRoughness" : 
         {
            "baseColorFactor" : [ 0.0, 1.0, 0.0, 1.0 ],
            "metallicFactor" : 0.0,
            "roughnessFactor" : 1.0
         }
      },
      {
         "pbrMetallicRoughness" : 
         {
            "baseColorFactor" : [ 1.0, 0.0, 0.0, 1.0 ],
            "metallicFactor" : 0.0,
            "roughnessFactor" : 1.0
         }
      },
      {
         "pbrMetallicRoughness" : 
         {
            "baseColorFactor" : [ 1.0, 1.0, 0.0, 1.0 ],
            "metallicFactor" : 0.0,
            "roughnessFactor" : 1.0
         }
      },
      {
         "pbrMetallicRoughness" : 
         {
            "baseColorFactor" : [ 0.0, 1.0, 0.0, 1.0 ],
            "metallicFactor" : 0.0,
            "roughnessFactor" : 1.0
         }
      },
      {
         "pbrMetallicRoughness" : 
         {
            "baseColorFactor" : [ 1.0, 1.0, 1.0, 1.0 ],
            "metallicFactor" : 0.0,
            "roughnessFactor" : 1.0
         }
      },
      {
         "pbrMetallicRoughness" : 
         {
            "baseColorFactor" : [ 1.0, 1.0, 1.0, 1.0 ],
            "metallicFactor" : 0.0,
            "roughnessFactor" : 1.0
         }
      },
      {
         "pbrMetallicRoughness" : 
         {
            "baseColorFactor" : [ 1.0, 1.0, 1.0, 1.0 ],
            "metallicFactor" : 0.0,
            "roughnessFactor" : 1.0
         }
      }
   ],
   "meshes" : 
   [
      {
         "name" : "mesh0",
         "primitives" : 
         [
            {
               "attributes" : 
               {
                  "COLOR_0" : 1,
                  "POSITION" : 0
               },
               "indices" : 2,
               "material" : 0,
               "mode" : 1
            }
         ]
      },
      {
         "name" : "mesh1",
         "primitives" : 
         [
            {
               "attributes" : 
               {
                  "POSITION" : 3
               },
               "indices" : 4,
               "material" : 1,
               "mode" : 4
            }
         ]
      },
      {
         "name" : "mesh2",
         "primitives" : 
         [
            {
               "attributes" : 
               {
                  "POSITION" : 5,
                  "TEXCOORD_0" : 6
               },
               "indices" : 7,
               "material" : 2,
               "mode" : 1
            }
         ]
      },
      {
         "name" : "mesh3",
         "primitives" : 
         [
            {
               "attributes" : 
               {
                  "POSITION" : 8,
                  "TEXCOORD_0" : 9
               },
               "indices" : 10,
               "material" : 3,
               "mode" : 1
            }
         ]
      },
      {
         "name" : "mesh4",
         "primitives" : 
         [
            {
               "attributes" : 
               {
                  "POSITION" : 11,
                  "TEXCOORD_0" : 12
               },
               "indices" : 13,
               "material" : 4,
               "mode" : 1
            }
         ]
      },
      {
         "name" : "mesh5",
         "primitives" : 
         [
            {
               "attributes" : 
               {
                  "POSITION" : 14
               },
               "indices" : 15,
               "material" : 5,
               "mode" : 4
            }
         ]
      },
      {
         "name" : "mesh6",
         "primitives" : 
         [
            {
               "attributes" : 
               {
                  "POSITION" : 16
               },
               "indices" : 17,
               "material" : 6,
               "mode" : 4
            }
         ]
      },
      {
         "name" : "mesh7",
         "primitives" : 
         [
            {
               "attributes" : 
               {
                  "POSITION" : 18
               },
               "indices" : 19,
               "material" : 7,
               "mode" : 4
            }
         ]
      },
      {
         "name" : "mesh8",
         "primitives" : 
         [
            {
               "attributes" : 
               {
                  "POSITION" : 20
               },
               "indices" : 21,
               "material" : 8,
               "mode" : 4
            }
         ]
      },
      {
         "name" : "mesh9",
         "primitives" : 
         [
            {
               "attributes" : 
               {
                  "POSITION" : 22
               },
               "indices" : 23,
               "material" : 9,
               "mode" : 4
            }
         ]
      },
      {
         "name" : "mesh10",
         "primitives" : 
         [
            {
               "attributes" : 
               {
                  "POSITION" : 24
               },
               "indices" : 25,
               "material" : 10,
               "mode" : 4
            }
         ]
      }
   ],
   "nodes" : 
   [
      {
         "matrix" : 
         [
            47.782180786132813,
            0.0,
            0.0,
            0.0,
            0.0,
            38.172428131103516,
            0.0,
            0.0,
            0.0,
            0.0,
            38.65971565246582,
            0.0,
            6.0394554138183594,
            0.34836578369140625,
            -0.0240325927734375,
            1.0
         ],
         "mesh" : 0,
         "name" : "mesh0"
      },
      {
         "matrix" : 
         [
            1.0,
            0.0,
            0.0,
            0.0,
            0.0,
            1.0,
            0.0,
            0.0,
            0.0,
            0.0,
            1.0,
            0.0,
            0.0,
            0.0,
            0.0,
            1.0
         ],
         "mesh" : 1,
         "name" : "mesh1"
      },
      {
         "camera" : 0,
         "matrix" : 
         [
            0.99989540261240462,
            -0.0052096929176800328,
            0.013492328719719069,
            0.0,
            0.012285345820612928,
            -0.18635847470057626,
            -0.98240500262638264,
            0.0,
            0.0076324381848417219,
            0.98246800355379438,
            -0.18627497921185338,
            0.0,
            -89.301402521458158,
            64.888285339268322,
            -1023.5766416838104,
            1.0
         ],
         "name" : "Camera Node"
      },
      {
         "children" : [ 0, 1, 2 ],
         "name" : "Renderer Node"
      },
      {
         "name" : "Renderer Node"
      },
      {
         "matrix" : 
         [
            0.0,
            -0.80000001192092918,
            0.0,
            0.0,
            0.80000001192092918,
            0.0,
            0.0,
            0.0,
            0.0,
            0.0,
            0.80000001192092918,
            0.0,
            0.0,
            0.0,
            0.0,
            1.0
         ],
         "mesh" : 2,
         "name" : "mesh2"
      },
      {
         "matrix" : 
         [
            0.80000001192092896,
            0.0,
            0.0,
            0.0,
            0.0,
            0.80000001192092896,
            0.0,
            0.0,
            0.0,
            0.0,
            0.80000001192092896,
            0.0,
            0.0,
            0.0,
            0.0,
            1.0
         ],
         "mesh" : 3,
         "name" : "mesh3"
      },
      {
         "matrix" : 
         [
            0.80000001192092918,
            0.0,
            0.0,
            0.0,
            0.0,
            0.0,
            0.80000001192092918,
            0.0,
            0.0,
            -0.80000001192092918,
            0.0,
            0.0,
            0.0,
            0.0,
            0.0,
            1.0
         ],
         "mesh" : 4,
         "name" : "mesh4"
      },
      {
         "matrix" : 
         [
            0.0,
            -0.20000000298023229,
            0.0,
            0.0,
            0.20000000298023229,
            0.0,
            0.0,
            0.0,
            0.0,
            0.0,
            0.20000000298023229,
            0.0,
            0.8999999985098841,
            0.0,
            0.0,
            1.0
         ],
         "mesh" : 5,
         "name" : "mesh5"
      },
      {
         "matrix" : 
         [
            0.20000000298023224,
            0.0,
            0.0,
            0.0,
            0.0,
            0.20000000298023224,
            0.0,
            0.0,
            0.0,
            0.0,
            0.20000000298023224,
            0.0,
            0.0,
            0.89999999850988388,
            0.0,
            1.0
         ],
         "mesh" : 6,
         "name" : "mesh6"
      },
      {
         "matrix" : 
         [
            0.20000000298023229,
            0.0,
            0.0,
            0.0,
            0.0,
            0.0,
            0.20000000298023229,
            0.0,
            0.0,
            -0.20000000298023229,
            0.0,
            0.0,
            0.0,
            0.0,
            0.8999999985098841,
            1.0
         ],
         "mesh" : 7,
         "name" : "mesh7"
      },
      {
         "matrix" : 
         [
            0.1988817792955781,
            -0.020919799724824457,
            -0.0028984540346687643,
            0.0,
            -0.0010436216733865297,
            -0.037149125281001637,
            0.19651680471845706,
            0.0,
            -0.021093835832315822,
            -0.19540293156046196,
            -0.037050581905681716,
            0.0,
            0.80000001192092918,
            0.0,
            0.0,
            1.0
         ],
         "mesh" : 8,
         "name" : "mesh8"
      },
      {
         "matrix" : 
         [
            0.19998242869960783,
            0.0021979621219275288,
            0.0014826887771041413,
            0.0,
            -0.001095519065790831,
            -0.033347910842697247,
            0.19719715482860525,
            0.0,
            0.0024143822140803477,
            -0.19718794840717571,
            -0.033332940968151092,
            0.0,
            0.0,
            0.80000001192092896,
            0.0,
            1.0
         ],
         "mesh" : 9,
         "name" : "mesh9"
      },
      {
         "matrix" : 
         [
            0.19998148742950694,
            0.0022877593036400427,
            0.0014737825292305867,
            0.0,
            -0.00072713081686313886,
            -0.059454147016346992,
            0.19095726452645539,
            0.0,
            0.0026224336693279442,
            -0.19094494429552228,
            -0.059440325383722195,
            0.0,
            0.0,
            0.0,
            0.80000001192092918,
            1.0
         ],
         "mesh" : 10,
         "name" : "mesh10"
      },
      {
         "camera" : 1,
         "matrix" : 
         [
            0.9998954026124045,
            -0.0052096929176800302,
            0.013492328719719065,
            0.0,
            0.012285345820612924,
            -0.18635847470057618,
            -0.98240500262638242,
            0.0,
            0.0076324381848417201,
            0.98246800355379404,
            -0.18627497921185332,
            0.0,
            5.2041704279304213e-18,
            0.0,
            -6.6921304299024662,
            1.0
         ],
         "name" : "Camera Node"
      },
      {
         "children" : [ 5, 6, 7, 8, 9, 10, 11, 12, 13, 14 ],
         "name" : "Renderer Node"
      }
   ],
   "scene" : 0,
   "scenes" : 
   [
      {
         "name" : "Layer 0",
         "nodes" : [ 3, 4, 15 ]
      }
   ]
}